<?xml version="1.0" encoding="UTF-8"?>
<svg width="1196px" height="1015px" viewBox="0 0 1196 1015" version="1.1" xmlns="http://www.w3.org/2000/svg" xmlns:xlink="http://www.w3.org/1999/xlink" style="background: #FFFFFF;">
    <!-- Generator: Sketch 41.2 (35397) - http://www.bohemiancoding.com/sketch -->
    <title>roolit</title>
    <desc>Created with Sketch.</desc>
    <defs></defs>
    <g id="Page-1" stroke="none" stroke-width="1" fill="none" fill-rule="evenodd">
        <g id="data" transform="translate(353.000000, 268.000000)" stroke="#000000" stroke-width="7">
            <path d="M111.6468,105.258952 C117.769447,103.407085 134.188426,95.8671151 134.188426,95.8671151 C169.738862,81.6816849 157.391382,37.7842402 196.853317,12.3887138 C236.315252,-13.0068126 253.084279,8.42933115 255.794463,8.91373422 C267.206226,10.9534087 276.418311,21.5474741 288.455207,20.0900199 C301.213731,18.5451895 318.617257,6.33899318 319.740683,6.31031709 C333.259125,5.9652514 369.498468,-14.0023473 377.843892,37.7842402 C379.376301,47.2934323 385.970281,62.6395324 395.324079,65.9672638 C404.979658,69.4023577 421.354691,71.1011958 429.953787,74.2245666 C449.505417,81.3261261 465.268927,96.6048079 482.42065,107.298859 C484.252656,108.441109 494.972455,129.516169 494.832009,133.434462 C494.093029,154.051162 487.532494,171.425895 470.306265,186.318016 C451.616047,202.475759 416.726977,212.684465 395.835108,221.064055 C394.963031,221.413839 377.332738,234.310301 360.254736,261.11836 C343.176734,287.926419 328.673628,289.593538 315.986877,300.440102 C309.36887,306.098181 310.697632,309.4559 299.07784,319.633259 C284.000583,332.838888 263.684527,339.853863 243.991955,341.41105 C236.821004,341.978092 226.932258,347.429484 222.416023,341.831805 C222.416023,341.831805 187.404573,289.746515 157.391382,270.371198 C147.383329,263.910399 125.210696,260.679064 114.085459,265.382254 C111.330247,266.547019 41.041615,262.419833 19.6428508,252.353898 C-7.89408638,239.400579 0.917933046,205.183987 7.89670636,182.779172 C10.9626289,172.936263 14.0248146,159.379755 22.0552067,151.466788 C29.813216,143.822222 54.8810565,136.675077 65.7218556,133.434462 C65.7218556,133.434462 99.6730341,108.880559 111.6468,105.258952 Z" id="pilvi"></path>
            <path d="M157.890172,205.905154 C157.698073,211.048368 156.657097,222.266301 157.845528,221.809592 C166.859599,218.345522 182.979339,212.898025 188.415531,202.121572 C197.314528,184.480619 213.463502,121.332025 181.015782,114.842482 C166.783556,111.996036 167.815217,118.517413 157.890172,120.478791 C157.890172,148.954245 158.952987,177.449541 157.890172,205.905154 Z" id="Path-44"></path>
            <path d="M215.246597,212.82498 C215.246597,190.558767 213.963014,168.255526 215.246597,146.026341 C217.662659,104.184797 224.52584,119.406491 225.436598,114.797838 C225.556327,114.191979 241.798002,130.44146 241.798002,130.44146 C248.878347,143.469416 246.023337,149.431106 253.171706,162.421863 C255.339225,166.360905 255.288265,171.185054 256.877161,175.390955 C260.545477,185.101204 264.905646,194.535806 268.919889,204.108232" id="Path-45"></path>
            <path d="M214.576936,169.643036 C230.064459,169.643036 240.728772,171.38784 253.10474,163.872794" id="Path-46"></path>
            <path d="M249.448739,111.796991 C264.441694,111.796991 292.355583,102.09726 307.348539,102.09726" id="Path-47"></path>
            <path d="M286.331063,199.945175 C286.331063,138.920298 288.21407,159.526502 282.580964,110.018878" id="Path-48"></path>
            <path d="M308.124858,198.284123 C308.124858,168.916499 311.628231,156.729835 319.065848,127.11011 C320.141938,122.824662 327.804225,105.696564 329.747388,101.728296 C330.606256,99.9743444 346.684381,126.584056 353.838145,138.208922 C360.991909,149.833789 367.245257,173.235554 370.998223,188.247419" id="Path-49"></path>
            <path d="M316.050144,145.980377 C341.971544,145.980377 333.464989,145.984782 357.571784,142.499462" id="Path-50"></path>
        </g>
        <g id="ilmiöntuntija" transform="translate(39.000000, 131.000000)" stroke-width="7" stroke="#000000">
            <g id="graph">
                <path d="M17.5,123.5 L102.5,197.5" id="Line" stroke-linecap="square"></path>
                <path d="M102.5,94.5 L102.5,197.5" id="Line" stroke-linecap="square"></path>
                <path d="M102.5,94.5 L67.5,17.5" id="Line-Copy" stroke-linecap="square"></path>
                <path d="M19.5,285.5 L102.5,197.5" id="Line" stroke-linecap="square"></path>
                <path d="M282.5,272.5 L102.5,197.5" id="Line" stroke-linecap="square"></path>
                <path d="M282.5,272.5 L357.5,354.5" id="Line" stroke-linecap="square"></path>
                <path d="M437.5,284.5 L357.5,354.5" id="Line" stroke-linecap="square"></path>
                <ellipse id="Oval" fill="#D8D8D8" cx="434.5" cy="287" rx="17.5" ry="15"></ellipse>
                <ellipse id="Oval" fill="#D8D8D8" cx="17.5" cy="123" rx="17.5" ry="15"></ellipse>
                <ellipse id="Oval-Copy" fill="#D8D8D8" cx="103.5" cy="93" rx="17.5" ry="15"></ellipse>
                <ellipse id="Oval-Copy-2" fill="#D8D8D8" cx="17.5" cy="287" rx="17.5" ry="15"></ellipse>
                <ellipse id="Oval" fill="#D8D8D8" cx="68.5" cy="15" rx="17.5" ry="15"></ellipse>
                <ellipse id="Oval" fill="#D8D8D8" cx="103.5" cy="198" rx="17.5" ry="15"></ellipse>
                <ellipse id="Oval" fill="#D8D8D8" cx="275.5" cy="272" rx="17.5" ry="15"></ellipse>
                <ellipse id="Oval" fill="#D8D8D8" cx="360.5" cy="351" rx="17.5" ry="15"></ellipse>
            </g>
            <g id="suurennuslasi" transform="translate(155.000000, 34.000000)">
                <path d="M0.474172124,75.1667701 C1.24038027,58.4208655 9.38282469,34.1855205 23.63472,23.9189203 C52.6389384,3.02522811 102.028855,-8.50320279 134.991104,9.3308177 C147.047525,15.8538695 145.313376,24.5096027 150.689461,36.3452295 C164.830333,67.4768234 174.506718,72.1245018 170.124251,111.655709 C165.234206,155.765429 79.2786351,179.161503 44.1851024,160.362784 C11.9767924,143.109606 7.55558493,118.956186 1.90469225,84.1128587 L0.474172124,75.1667701 Z" id="Path-3"></path>
                <path d="M143.745033,148.379509 C155.005426,148.379509 187.010669,166.48743 194.677955,176.151883 C196.874429,178.920493 197.25726,182.879398 199.551331,185.567695 C200.32434,186.473542 202.478452,187.034508 203.095605,186.016067 C207.999524,177.923493 220.441669,167.891446 214.918747,160.207989 C202.615716,143.092082 178.910207,138.284023 160.905937,127.322039" id="Path-4"></path>
                <path d="M77.7649611,24.6715447 C119.033036,25.1066543 128.736527,17.1123635 145.986893,56.0575833" id="Path-5"></path>
            </g>
        </g>
        <g id="data-analyysi" transform="translate(39.000000, 548.000000)" stroke="#000000" stroke-width="7">
            <path d="M19.1645628,137.209965 C19.061814,172.898763 20.9952311,218.904137 22.3164708,236.785502 C23.8483202,257.517211 30.312349,277.934579 30.8622272,298.699409 C31.2748978,314.282922 26.483636,329.677991 25.1881866,345.228941 C22.9685945,371.873566 -1.66422826,405.544339 20.3201479,425.24958 C41.3650327,444.112728 82.6830134,424.12603 113.853746,424.702483 C125.648685,424.920612 180.639203,434.12265 196.738509,433.99876 C209.60611,433.89974 221.613217,428.293298 234.380404,426.974031 C244.414322,425.9372 260.6501,434.565348 264.720241,426.974031 C271.553508,414.229144 258.658931,399.564805 256.478737,385.757909 C254.440921,372.852667 249.441276,337.48608 249.710456,318.504332 C250.43798,267.201471 260.930089,217.449805 257.332779,166.104907 C254.754166,129.300001 252.403683,161.55247 258.688571,88.4652352 C260.332596,69.346789 257.677051,50.115455 258.688571,30.9674973 C259.227729,20.7612918 263.338936,10.7734154 263.332423,0.557640918 C263.331036,-1.61797428 254.6867,8.15336763 252.523456,9.06172137 C248.789409,10.6296609 245.030667,12.234388 241.025917,13.2590519 C235.791236,14.5984087 191.468739,17.8614008 174.704229,17.9684654 C116.981387,18.3371059 59.2529876,17.0751333 1.53122688,17.5439179 C0.726414017,17.5504542 0.391598197,18.7529816 0.634482917,19.3821649 C20.1262572,69.8748375 6.90642013,22.6877663 19.2579334,73.5316673 C19.2579334,73.5316673 19.1863072,129.657261 19.1645628,137.209965 Z" id="sivu"></path>
            <g id="piirakkadiagrammi" transform="translate(66.000000, 36.000000)">
                <path d="M54.4138547,92.1993268 C54.4138547,71.4217245 53.8125207,50.9847716 60.2907303,30.9591872 C61.8105605,26.2610546 36.9643822,23.5202027 20.006643,41.0101924 C1.19103315,60.4163657 3.66579283,70.3776679 1.19103315,82.5700048 C-0.621454726,91.4995436 1.31553495,111.081843 6.59458124,124.273423 C11.8736275,137.465004 30.9381958,146.994006 35.3041727,148.434878 C48.7427827,152.869925 66.1504725,148.434878 84.3159956,143.682038 C93.5831213,141.257381 106.936353,125.514914 110.700552,120.793716 C128.970552,97.8787996 129.609922,55.1584471 99.7367891,40.6312114 C98.6531631,40.1042466 87.4966957,60.1853426 83.2911454,63.9945942 C80.8571826,66.1991989 54.4138547,92.1993268 54.4138547,92.1993268 Z" id="piirakka"></path>
                <path d="M69.6264755,47.1486184 C69.6264755,51.2118698 90.4292571,22.172465 93.2247198,19.7071856 C97.8661533,15.6139705 108.091573,12.2041077 106.110076,6.3414304 C103.481693,-1.43519755 79.3396024,0.355434269 76.0875542,0.355434269 C76.3953651,15.350986 69.6264755,43.0853669 69.6264755,47.1486184 Z" id="pala"></path>
            </g>
            <g id="teksti" transform="translate(45.000000, 211.000000)">
                <path d="M0.380938975,6.67622566 C20.0843965,6.67622566 39.8331209,8.01105664 59.4913117,6.67622566 C67.7358008,6.11640814 75.4014064,1.79627858 83.6286699,1.02353605 C99.743516,-0.490044612 160.880021,2.26561511 175.72641,5.43252719" id="Path-9"></path>
                <path d="M3.21529042,28.4786097 C61.7651982,28.4554794 120.315106,28.4323491 178.865014,28.4092188" id="Path-10"></path>
                <path d="M4.02609637,53.1009925 L48.7405259,53.5493645" id="Path-11"></path>
                <path d="M85.9368366,53.5582014 L145.922602,54.0065734" id="Path-12"></path>
                <polyline id="Path-13" points="5.8271165 76.4036434 13.6736262 76.4036434 21.3066253 76.4036434 23.1534909 76.4036434 23.5965251 76.4036434"></polyline>
                <path d="M45.3195545,75.9606092 C70.9052254,76.3467073 96.5561327,78.9851963 122.076567,77.1189035 C127.549576,76.7186659 157.577079,76.4036434 162.84545,75.9606092" id="Path-14"></path>
            </g>
            <g id="pylväsdiagrammi" transform="translate(68.000000, 310.000000)">
                <path d="M0.466758187,72.7233747 C0.466758187,42.9894847 -0.89540373,55.5226015 2.42571672,34.9533732" id="Path-15"></path>
                <path d="M19.8641841,71.8660116 L19.8641841,4.07110069" id="Path-16"></path>
                <path d="M42.9019634,71.5777725 L42.9019634,60.4058373" id="Path-17"></path>
                <path d="M66.3293994,71.6258124 L65.3205624,20.5167444" id="Path-18"></path>
                <path d="M94.512781,71.985281 L95.9166123,0.181711005" id="Path-19"></path>
                <path d="M119.621612,72.0657033 L118.580748,50.8641139" id="Path-20"></path>
            </g>
            <g id="nuoli" transform="translate(307.000000, 19.000000)">
                <path d="M130.566557,0.957691368 C125.135483,28.9241939 112.295905,55.1577681 95.9946146,78.6952539 C86.017178,93.1017066 67.09168,127.544121 34.836012,146.13593" id="Path-6"></path>
                <path d="M5.10083474,124.706649 C-4.64165686,124.706649 5.10083474,158.579017 5.10083474,192.451384 C17.8950871,192.451384 41.272457,179.37077 53.8326882,179.107794 C66.3929194,178.844818 14.8433263,124.706649 5.10083474,124.706649 Z" id="Path-7"></path>
            </g>
        </g>
        <g id="data-editori" transform="translate(785.000000, 88.000000)" stroke="#000000" stroke-width="7">
            <g id="editori" transform="translate(119.000000, 0.000000)">
                <path d="M21.4506567,164.697101 C22.7636833,176.787204 21.2538288,189.042077 22.7687869,201.083751 C23.7479458,208.866615 29.9690717,240.58864 31.5233051,248.831216 C34.370816,263.932439 37.1216546,320.308627 45.9160682,327.387927 C68.2280551,345.348561 84.6234696,323.872394 101.643262,317.835382 C112.339785,314.041268 123.902983,313.112277 134.626995,309.396792 C145.791733,305.528612 155.806418,298.656428 167.092619,295.159533 C206.956035,282.808328 212.890363,285.242477 250.492929,281.593698 C250.963229,281.548062 252.181336,281.162397 251.757724,280.952793 C231.921103,271.13756 218.929673,100.872456 190.598005,0.114077199 C172.642147,2.94856218 154.712221,6.06374696 136.973724,10.0404837 C110.823051,15.9031192 90.3041263,31.7480866 63.4632008,37.0119262 C43.8337722,40.8615016 20.5584033,42.4917692 0.730575234,45.1316897 C0.730575234,45.1316897 13.7075194,93.3997397 21.4506567,164.697101 Z" id="Path-36"></path>
                <path d="M54.9038044,72.2570137 C58.3277689,77.8286808 66.3457437,95.4565836 78.0031632,84.4799984 C95.3929537,68.105833 47.3627552,45.5235621 88.5392299,39.8110928 C93.0650147,39.1832244 102.326856,57.0529662 102.962165,58.8555098 C109.65099,77.8334912 92.3943879,84.3634556 100.510428,102.296689 C112.800337,129.452521 118.196319,120.865705 116.462467,146.87876 C116.342342,148.681013 109.362954,158.353758 108.163287,159.702605 C106.216553,161.891416 99.3198436,168.248015 96.6213202,169.383328 C90.0668563,172.140898 80.9352319,175.115213 70.2109306,173.701723 C37.3397811,169.369222 52.2881947,129.824835 63.8926989,113.642742 C65.34167,111.6222 53.4587116,101.192818 52.2881947,98.3433962 C48.9412232,90.1957717 45.7829633,89.4268108 35.4953679,72.2570137 C35.0563199,71.524251 54.9038044,72.2570137 54.9038044,72.2570137 Z" id="Path-37"></path>
                <path d="M52.6159937,257.441668 C62.5321282,276.291894 150.255291,237.257637 162.248293,230.830138 C172.085486,225.558017 197.458215,225.653213 206.711666,217.233158 C210.318553,213.951119 189.925541,180.55429 189.797467,179.802048 C188.970878,174.947058 191.704059,164.240582 189.104116,164.502944 C173.100938,166.117832 62.5486778,196.256059 46.7469577,201.489576 C46.7469577,207.852174 51.1301656,254.61716 52.6159937,257.441668 Z" id="Path-38"></path>
                <path d="M182.631751,275.549784 C194.800374,272.438964 209.668708,276.393066 219.707022,268.835535 C224.448602,265.265748 215.083195,257.804018 213.946869,251.973615 C212.927324,246.742409 217.653493,239.072803 213.306852,235.996754 C208.097655,232.31029 200.42901,236.352313 194.281585,238.056808 C190.871527,239.002314 155.552734,249.087132 152.360471,250.615505 C159.587104,295.844664 151.183874,283.589206 182.631751,275.549784 Z" id="Path-39"></path>
            </g>
            <g id="nuoli" transform="translate(0.000000, 167.000000)">
                <path d="M0.89962173,79.5117424 C0.529860557,80.9006717 14.9843118,77.8606754 19.951038,78.2213325 C29.5798141,78.9205226 39.6563146,84.6691668 48.7388416,81.3965685 C52.9167375,79.8911973 43.7100291,74.0484679 40.7706544,70.7196492 C36.934461,66.3751904 32.1762895,62.8877118 28.4647337,58.4363013 C22.6766346,51.494413 17.7200961,43.8994386 12.3477773,36.6310073 C3.24371912,61.3130464 6.22349831,59.5137312 0.89962173,79.5117424 Z" id="Path-2"></path>
                <path d="M118.659238,7.77806987 C118.828551,2.74499864 109.173859,4.22188406 104.212667,3.35756945 C95.2145742,1.78996603 85.9315402,-1.19865235 76.9598113,0.513400675 C74.3712852,1.00736275 77.7924956,5.71767776 78.2088378,8.3198163 C78.2088378,8.3198163 116.096046,83.9728961 118.659238,7.77806987 Z" id="Path-41"></path>
                <path d="M31,57.0788077 C50.5822638,38.2533265 59.575749,31.7194691 84.693091,21" id="Path-42"></path>
            </g>
            <path d="M180.667149,209.657285 C208.019205,209.657285 217.037428,202.632312 196.505696,223.59336 C195.141615,224.985963 192.237099,228.073183 191.343161,226.340863 C189.681309,223.120438 199.184336,220.852488 200.227523,220.748886 C205.637943,220.211562 211.408494,218.083873 216.5186,219.940797 C218.674973,220.724385 213.743526,223.729963 211.803978,224.955567 C209.121674,226.65052 205.717637,226.914361 202.970409,228.501924 C198.173459,231.273976 186.212387,233.360146 189.302158,237.958876 C197.646919,250.378985 225.48008,228.868421 197.059814,243.356911 C194.37396,244.726144 192.405221,247.189562 190.077924,249.105888" id="Path-40"></path>
            <path d="M238.609449,97.0050416 C257.743026,120.971707 257.585023,132.307808 260.681826,107.057671 C260.775138,106.296841 273.605428,109.283775 279.461818,107.057671 C281.881988,106.137726 281.47267,100.274484 279.073935,99.3000148 C272.702175,96.711531 265.410773,101.998702 260.681826,97.0050416 C256.140135,92.2091195 261.15912,85.1621473 259.605913,78.7422271 C258.970096,76.1141837 251.268868,87.0967066 249.520961,88.3238555 C246.312124,90.5766762 238.609449,97.0050416 238.609449,97.0050416 Z" id="Path-43"></path>
        </g>
        <g id="tiedon-tuottaja" transform="translate(453.000000, 33.000000)" stroke="#000000" stroke-width="7">
            <g id="tietokanta" transform="translate(175.000000, 0.000000)">
                <path d="M13.2671541,52.9317853 C51.5834828,61.8121572 55.6494098,65.7734503 101.397355,58.755639 C109.581734,57.5001416 146.486297,28.853483 140.518567,18.9150375 C135.793079,11.0453793 119.439575,4.10520064 110.861711,2.19925998 C81.9434164,-4.22618056 37.0496894,5.7474103 21.7978394,18.9150375 C9.77425453,29.2955542 -10.2049351,44.4479202 7.26105487,50.267393 L13.2671541,52.9317853 Z" id="Path-34"></path>
                <path d="M4.00977523,48.3153115 C4.00977523,68.7775194 17.4601977,148.353248 24.6926664,163.023853 C28.1066918,169.948987 37.196124,172.94142 44.7253017,174.662923 C87.9882759,184.554754 95.7631716,183.173664 131.399448,164.984572 C134.646507,163.327243 156.284063,147.036708 156.800475,141.848951 C157.809761,131.709896 142.336648,32.1076972 141.3758,22.0766585" id="Path-35"></path>
            </g>
            <g id="nuoli" transform="translate(76.000000, 159.500000) scale(1, -1) translate(-76.000000, -159.500000) translate(0.000000, 68.000000)">
                <path d="M37.86184,49.8520001 C41.0363864,65.724732 24.202516,84.770995 27.9740741,100.175311 C32.0454936,116.804361 11.588669,132.972195 27.9740741,142.803438 C42.3287559,151.416247 111.070837,149.249924 113.11666,149.381913" id="Path-32"></path>
                <path d="M22.649281,-5.54170274 C22.649281,1.35287792 21.7141461,8.31117068 22.649281,15.1420392 C23.3463083,20.2336056 26.9891474,32.9972896 27.4849321,34.4846436 C27.6501936,34.9804282 23.336348,55.098265 27.4849321,72.7922262 C28.2093321,75.8818358 64.6445793,35.3647718 65.4176019,34.4846436 C68.892964,30.5277554 54.1321558,15.3083592 36.6840027,3.67625715 C34.2064446,2.02455176 22.649281,-5.54170274 22.649281,-5.54170274 Z" id="Path-33" transform="translate(44.081176, 33.709302) rotate(-72.000000) translate(-44.081176, -33.709302) "></path>
                <path d="M108.707882,104.313264 C108.707882,111.207845 107.772747,118.166138 108.707882,124.997006 C109.404909,130.088573 113.047748,142.852257 113.543533,144.339611 C113.708794,144.835395 109.394949,164.953232 113.543533,182.647193 C114.267933,185.736803 150.70318,145.219739 151.476203,144.339611 C154.951565,140.382723 140.190756,125.163326 122.742603,113.531224 C120.265045,111.879519 108.707882,104.313264 108.707882,104.313264 Z" id="Path-33"></path>
            </g>
        </g>
        <g id="julkaisujärjestelmä" transform="translate(609.000000, 485.000000)" stroke="#000000" stroke-width="7">
            <g id="browser" transform="translate(131.000000, 0.000000)">
                <path d="M29.1901048,67.1109274 C17.2298273,99.5778467 13.9003979,83.6818253 44.4678955,100.959106" id="Path-21"></path>
                <path d="M44.2762426,63.0046683 C70.8125971,82.6343004 69.3756635,70.9494169 53.7817403,97.0202097" id="Path-22"></path>
                <path d="M76.4936392,54.2893183 C77.5490466,63.0650251 72.0786052,77.6033002 78.5836282,83.5875788 C84.2032695,88.7573529 93.8339186,82.4236443 101.358568,81.1249616 C115.315184,78.7161828 129.733821,72.7111668 143.404087,70.5572253 C150.401568,69.4546743 157.700404,71.0146976 164.631779,69.5530513 C172.007984,67.9976019 178.448704,63.247801 185.808238,61.6152947 C212.300194,55.7387973 241.729498,51.9870087 268.847283,49.4456618 C269.448065,49.3893593 267.181925,50.031424 267.037037,49.4456618 L267.037037,35.428212 C266.170491,31.9248925 260.280211,27.18918 258.367499,24.1288401" id="Path-23"></path>
                <path d="M76.4113334,54.1796251 C85.0378564,53.7895583 103.926263,53.9896459 114.16008,50.8084694 C149.876685,39.7059815 115.876009,41.2085148 173.433672,36.2957638 C192.392969,34.6775204 250.122005,25.3301186 258.908009,23.9963397" id="Path-24"></path>
                <path d="M53.6222851,278.93303 C61.6542317,313.932152 63.0299668,349.632355 68.968205,384.883367 C72.4630435,405.629688 75.9510107,426.392934 78.4606863,447.281333 C79.3341812,454.551561 71.8281598,468.40811 79.1033257,469.239471 C98.0735614,471.407272 115.55944,457.682552 134.223207,453.653529 C376.174335,401.422562 274.498598,420.181844 335.384834,409.636599 C342.409278,408.419995 385.550243,414.720618 391.178325,404.487741 C397.449509,393.085589 381.286973,380.408386 375.902089,368.561874 C322.722523,251.569128 325.412576,236.147141 322.330737,225.6017 C310.731671,185.912006 290.774598,146.087458 286.69909,104.568693 C283.239077,69.3202082 275.785027,4.11194871 271.144119,3.07811835 C226.911298,-6.77539186 185.34547,14.9234795 143.994423,24.5949253 C116.648989,30.9906494 88.7633337,34.904776 61.4113847,41.27258 C54.8458219,42.8011079 48.8632485,46.2383912 42.4264222,48.2409594 C28.4108562,52.6013577 14.2019049,56.3139559 0.089646168,60.3504542 C0.089646168,60.3504542 37.5242403,208.785971 53.6222851,278.93303 Z" id="Path-8"></path>
            </g>
            <g id="embed" transform="translate(204.000000, 182.000000)">
                <path d="M15.4863496,23.9995062 C15.4863496,42.0063273 7.41122617,60.0528085 1.07242577,76.5538127 C0.92177376,76.9459862 0.656299431,75.2357206 1.07242577,75.2934696 L7.79425561,75.2934696 C8.96403584,75.4558089 10.1437613,75.9277658 11.0551433,76.6788468 C17.0869277,81.6497133 22.4398015,87.4106617 28.4948908,92.3531137 C31.9396151,95.1648616 35.830221,97.3811491 39.4978861,99.8951668" id="Path-25"></path>
                <path d="M203.924308,0.558124964 C244.243265,49.6665742 236.72738,24.6845141 213.286856,68.4416044" id="Path-26"></path>
                <path d="M33.8817294,62.5550019 C40.2997399,61.3740318 43.8884341,61.7702052 48.8257975,57.5136296 C62.3331913,45.8687011 45.3719837,44.9185714 38.2579207,51.1669018 C29.1772401,59.1425261 44.4011683,93.3359205 65.8454307,77.0589502" id="Path-27"></path>
                <path d="M71.1268684,46.6256656 C71.1268684,91.6075448 71.2980158,64.5860292 74.482782,47.9160169 C74.8177554,46.1626662 76.4855116,42.5111863 77.803686,43.7148732 L80.709477,43.2947589 C83.1191149,45.4951123 85.0772036,54.451779 86.2109746,51.3919631 L87.4563137,58.9990339 C88.450785,56.3151595 85.3795054,41.1555621 90.6421809,38.7535226 C92.6504667,37.8368821 99.8823016,47.0469015 100.259799,48.8562728 C101.564347,55.1090599 101.366767,61.5830707 101.920251,67.9464696" id="Path-28"></path>
                <path d="M112.198049,17.8078207 C113.316687,34.8924716 113.919016,52.0187807 115.553962,69.0617732 C116.211424,75.9152749 114.121602,55.2212983 115.133848,48.4111517 C115.441797,46.3393449 117.67089,45.0162674 119.319988,43.7248759 C122.383547,41.3258344 125.58675,38.9904221 129.152664,37.4331632 C130.848789,36.6924539 133.483565,35.6087691 134.689172,37.0130488 C154.5438,60.1395343 129.59589,61.0470253 113.243333,65.3857725" id="Path-29"></path>
                <path d="M155.65988,47.6459433 C180.973728,47.6459433 167.475069,27.1069123 158.34061,36.0127765 C156.07276,38.2238721 155.091001,41.6077021 154.559581,44.7301496 C151.298674,63.8901346 155.995821,62.9351054 172.584487,62.9351054" id="Path-30"></path>
                <path d="M195.310674,31.9916819 C186.85905,33.4897669 173.401097,48.5151542 176.440537,57.408601 C178.093858,62.2462412 194.307088,63.1700244 194.850549,56.178266 C196.223945,38.5091691 194.247051,20.7386186 193.945302,3.01879481" id="Path-31"></path>
            </g>
            <g id="nuoli" transform="translate(0.000000, 134.000000)">
                <path d="M0.887178738,0.61674677 C4.06172512,16.4894787 8.09028182,24.4076496 11.86184,39.8119656 C15.9332594,56.4410159 14.2901399,77.2794347 30.675545,87.1106778 C45.0302268,95.7234868 85.0708366,93.2499242 87.1166601,93.3819128" id="Path-32"></path>
                <path d="M82.7078816,48.3132644 C82.7078816,55.207845 81.7727467,62.1661378 82.7078816,68.9970063 C83.4049089,74.0885727 87.0477481,86.8522567 87.5435327,88.3396107 C87.7087943,88.8353953 89.9306333,130.27905 94.0792174,147.973011 C94.8036174,151.062621 121.526752,93.3187088 122.299775,92.4385806 C125.775137,88.4816924 132.986951,80.1814204 133.274436,79.7449964 C134.193409,78.349929 134.842245,74.9849024 134.842245,74.9849024 C135.129731,74.5484785 136.932657,74.9849024 136.410054,74.9849024 C111.235426,74.9849024 114.190756,69.1633263 96.7426033,57.5312243 C94.2650453,55.8795189 82.7078816,48.3132644 82.7078816,48.3132644 Z" id="Path-33"></path>
            </g>
        </g>
    </g>
</svg>